<mxfile host="app.diagrams.net" modified="2021-04-25T20:50:16.831Z" agent="5.0 (Windows NT 10.0; Win64; x64) AppleWebKit/537.36 (KHTML, like Gecko) Chrome/90.0.4430.85 Safari/537.36 Edg/90.0.818.46" etag="lACqC-I22W8t0wAlLCWl" version="14.6.6" type="github" pages="2">
  <diagram id="yOmeUFrSN2V1dwsD5OgX" name="Page-1">
    <mxGraphModel dx="868" dy="492" grid="1" gridSize="10" guides="1" tooltips="1" connect="1" arrows="1" fold="1" page="1" pageScale="1" pageWidth="850" pageHeight="1100" math="0" shadow="0">
      <root>
        <mxCell id="bS-e7XpnPPVvGozjsTUE-0" />
        <mxCell id="bS-e7XpnPPVvGozjsTUE-1" parent="bS-e7XpnPPVvGozjsTUE-0" />
        <mxCell id="FL23C61_9b-Y5R-ksTpO-0" value="&lt;b&gt;&lt;font style=&quot;font-size: 14px&quot;&gt;ResoluciÃ³n #1&lt;/font&gt;&lt;/b&gt;" style="text;html=1;strokeColor=none;fillColor=none;align=center;verticalAlign=middle;whiteSpace=wrap;rounded=0;" vertex="1" parent="bS-e7XpnPPVvGozjsTUE-1">
          <mxGeometry x="40" y="40" width="120" height="20" as="geometry" />
        </mxCell>
        <mxCell id="cxfsNNVY0mn9U3lUqanO-0" value="Libro" style="shape=table;startSize=30;container=1;collapsible=1;childLayout=tableLayout;fixedRows=1;rowLines=0;fontStyle=1;align=center;resizeLast=1;" vertex="1" parent="bS-e7XpnPPVvGozjsTUE-1">
          <mxGeometry x="80" y="230" width="160" height="280" as="geometry" />
        </mxCell>
        <mxCell id="cxfsNNVY0mn9U3lUqanO-1" value="" style="shape=partialRectangle;collapsible=0;dropTarget=0;pointerEvents=0;fillColor=none;top=0;left=0;bottom=1;right=0;points=[[0,0.5],[1,0.5]];portConstraint=eastwest;" vertex="1" parent="cxfsNNVY0mn9U3lUqanO-0">
          <mxGeometry y="30" width="160" height="30" as="geometry" />
        </mxCell>
        <mxCell id="cxfsNNVY0mn9U3lUqanO-2" value="PK" style="shape=partialRectangle;connectable=0;fillColor=none;top=0;left=0;bottom=0;right=0;fontStyle=1;overflow=hidden;" vertex="1" parent="cxfsNNVY0mn9U3lUqanO-1">
          <mxGeometry width="30" height="30" as="geometry" />
        </mxCell>
        <mxCell id="cxfsNNVY0mn9U3lUqanO-3" value="í ¼í¶”Â " style="shape=partialRectangle;connectable=0;fillColor=none;top=0;left=0;bottom=0;right=0;align=left;spacingLeft=6;fontStyle=5;overflow=hidden;" vertex="1" parent="cxfsNNVY0mn9U3lUqanO-1">
          <mxGeometry x="30" width="130" height="30" as="geometry" />
        </mxCell>
        <mxCell id="cxfsNNVY0mn9U3lUqanO-4" value="" style="shape=partialRectangle;collapsible=0;dropTarget=0;pointerEvents=0;fillColor=none;top=0;left=0;bottom=0;right=0;points=[[0,0.5],[1,0.5]];portConstraint=eastwest;" vertex="1" parent="cxfsNNVY0mn9U3lUqanO-0">
          <mxGeometry y="60" width="160" height="30" as="geometry" />
        </mxCell>
        <mxCell id="cxfsNNVY0mn9U3lUqanO-5" value="" style="shape=partialRectangle;connectable=0;fillColor=none;top=0;left=0;bottom=0;right=0;editable=1;overflow=hidden;" vertex="1" parent="cxfsNNVY0mn9U3lUqanO-4">
          <mxGeometry width="30" height="30" as="geometry" />
        </mxCell>
        <mxCell id="cxfsNNVY0mn9U3lUqanO-6" value="Titulo" style="shape=partialRectangle;connectable=0;fillColor=none;top=0;left=0;bottom=0;right=0;align=left;spacingLeft=6;overflow=hidden;" vertex="1" parent="cxfsNNVY0mn9U3lUqanO-4">
          <mxGeometry x="30" width="130" height="30" as="geometry" />
        </mxCell>
        <mxCell id="cxfsNNVY0mn9U3lUqanO-7" value="" style="shape=partialRectangle;collapsible=0;dropTarget=0;pointerEvents=0;fillColor=none;top=0;left=0;bottom=0;right=0;points=[[0,0.5],[1,0.5]];portConstraint=eastwest;" vertex="1" parent="cxfsNNVY0mn9U3lUqanO-0">
          <mxGeometry y="90" width="160" height="30" as="geometry" />
        </mxCell>
        <mxCell id="cxfsNNVY0mn9U3lUqanO-8" value="" style="shape=partialRectangle;connectable=0;fillColor=none;top=0;left=0;bottom=0;right=0;editable=1;overflow=hidden;" vertex="1" parent="cxfsNNVY0mn9U3lUqanO-7">
          <mxGeometry width="30" height="30" as="geometry" />
        </mxCell>
        <mxCell id="cxfsNNVY0mn9U3lUqanO-9" value="id_Autor" style="shape=partialRectangle;connectable=0;fillColor=none;top=0;left=0;bottom=0;right=0;align=left;spacingLeft=6;overflow=hidden;" vertex="1" parent="cxfsNNVY0mn9U3lUqanO-7">
          <mxGeometry x="30" width="130" height="30" as="geometry" />
        </mxCell>
        <mxCell id="cxfsNNVY0mn9U3lUqanO-10" value="" style="shape=partialRectangle;collapsible=0;dropTarget=0;pointerEvents=0;fillColor=none;top=0;left=0;bottom=0;right=0;points=[[0,0.5],[1,0.5]];portConstraint=eastwest;" vertex="1" parent="cxfsNNVY0mn9U3lUqanO-0">
          <mxGeometry y="120" width="160" height="30" as="geometry" />
        </mxCell>
        <mxCell id="cxfsNNVY0mn9U3lUqanO-11" value="" style="shape=partialRectangle;connectable=0;fillColor=none;top=0;left=0;bottom=0;right=0;editable=1;overflow=hidden;" vertex="1" parent="cxfsNNVY0mn9U3lUqanO-10">
          <mxGeometry width="30" height="30" as="geometry" />
        </mxCell>
        <mxCell id="cxfsNNVY0mn9U3lUqanO-12" value="id_Editorial" style="shape=partialRectangle;connectable=0;fillColor=none;top=0;left=0;bottom=0;right=0;align=left;spacingLeft=6;overflow=hidden;" vertex="1" parent="cxfsNNVY0mn9U3lUqanO-10">
          <mxGeometry x="30" width="130" height="30" as="geometry" />
        </mxCell>
        <mxCell id="mSsjtaZVwX1S2jAwTyh8-57" value="" style="shape=partialRectangle;collapsible=0;dropTarget=0;pointerEvents=0;fillColor=none;top=0;left=0;bottom=0;right=0;points=[[0,0.5],[1,0.5]];portConstraint=eastwest;" vertex="1" parent="cxfsNNVY0mn9U3lUqanO-0">
          <mxGeometry y="150" width="160" height="30" as="geometry" />
        </mxCell>
        <mxCell id="mSsjtaZVwX1S2jAwTyh8-58" value="" style="shape=partialRectangle;connectable=0;fillColor=none;top=0;left=0;bottom=0;right=0;editable=1;overflow=hidden;" vertex="1" parent="mSsjtaZVwX1S2jAwTyh8-57">
          <mxGeometry width="30" height="30" as="geometry" />
        </mxCell>
        <mxCell id="mSsjtaZVwX1S2jAwTyh8-59" value="id_Genero" style="shape=partialRectangle;connectable=0;fillColor=none;top=0;left=0;bottom=0;right=0;align=left;spacingLeft=6;overflow=hidden;" vertex="1" parent="mSsjtaZVwX1S2jAwTyh8-57">
          <mxGeometry x="30" width="130" height="30" as="geometry" />
        </mxCell>
        <mxCell id="mSsjtaZVwX1S2jAwTyh8-60" value="" style="shape=partialRectangle;collapsible=0;dropTarget=0;pointerEvents=0;fillColor=none;top=0;left=0;bottom=0;right=0;points=[[0,0.5],[1,0.5]];portConstraint=eastwest;" vertex="1" parent="cxfsNNVY0mn9U3lUqanO-0">
          <mxGeometry y="180" width="160" height="30" as="geometry" />
        </mxCell>
        <mxCell id="mSsjtaZVwX1S2jAwTyh8-61" value="" style="shape=partialRectangle;connectable=0;fillColor=none;top=0;left=0;bottom=0;right=0;editable=1;overflow=hidden;" vertex="1" parent="mSsjtaZVwX1S2jAwTyh8-60">
          <mxGeometry width="30" height="30" as="geometry" />
        </mxCell>
        <mxCell id="mSsjtaZVwX1S2jAwTyh8-62" value="ReseÃ±a" style="shape=partialRectangle;connectable=0;fillColor=none;top=0;left=0;bottom=0;right=0;align=left;spacingLeft=6;overflow=hidden;" vertex="1" parent="mSsjtaZVwX1S2jAwTyh8-60">
          <mxGeometry x="30" width="130" height="30" as="geometry" />
        </mxCell>
        <mxCell id="mSsjtaZVwX1S2jAwTyh8-63" value="" style="shape=partialRectangle;collapsible=0;dropTarget=0;pointerEvents=0;fillColor=none;top=0;left=0;bottom=0;right=0;points=[[0,0.5],[1,0.5]];portConstraint=eastwest;" vertex="1" parent="cxfsNNVY0mn9U3lUqanO-0">
          <mxGeometry y="210" width="160" height="30" as="geometry" />
        </mxCell>
        <mxCell id="mSsjtaZVwX1S2jAwTyh8-64" value="" style="shape=partialRectangle;connectable=0;fillColor=none;top=0;left=0;bottom=0;right=0;editable=1;overflow=hidden;" vertex="1" parent="mSsjtaZVwX1S2jAwTyh8-63">
          <mxGeometry width="30" height="30" as="geometry" />
        </mxCell>
        <mxCell id="mSsjtaZVwX1S2jAwTyh8-65" value="AÃ±o" style="shape=partialRectangle;connectable=0;fillColor=none;top=0;left=0;bottom=0;right=0;align=left;spacingLeft=6;overflow=hidden;" vertex="1" parent="mSsjtaZVwX1S2jAwTyh8-63">
          <mxGeometry x="30" width="130" height="30" as="geometry" />
        </mxCell>
        <mxCell id="mSsjtaZVwX1S2jAwTyh8-0" value="Genero" style="shape=table;startSize=30;container=1;collapsible=1;childLayout=tableLayout;fixedRows=1;rowLines=0;fontStyle=1;align=center;resizeLast=1;" vertex="1" parent="bS-e7XpnPPVvGozjsTUE-1">
          <mxGeometry x="320" y="400" width="160" height="160" as="geometry" />
        </mxCell>
        <mxCell id="mSsjtaZVwX1S2jAwTyh8-1" value="" style="shape=partialRectangle;collapsible=0;dropTarget=0;pointerEvents=0;fillColor=none;top=0;left=0;bottom=1;right=0;points=[[0,0.5],[1,0.5]];portConstraint=eastwest;" vertex="1" parent="mSsjtaZVwX1S2jAwTyh8-0">
          <mxGeometry y="30" width="160" height="30" as="geometry" />
        </mxCell>
        <mxCell id="mSsjtaZVwX1S2jAwTyh8-2" value="PK" style="shape=partialRectangle;connectable=0;fillColor=none;top=0;left=0;bottom=0;right=0;fontStyle=1;overflow=hidden;" vertex="1" parent="mSsjtaZVwX1S2jAwTyh8-1">
          <mxGeometry width="30" height="30" as="geometry" />
        </mxCell>
        <mxCell id="mSsjtaZVwX1S2jAwTyh8-3" value="í ¼í¶”Â " style="shape=partialRectangle;connectable=0;fillColor=none;top=0;left=0;bottom=0;right=0;align=left;spacingLeft=6;fontStyle=5;overflow=hidden;" vertex="1" parent="mSsjtaZVwX1S2jAwTyh8-1">
          <mxGeometry x="30" width="130" height="30" as="geometry" />
        </mxCell>
        <mxCell id="mSsjtaZVwX1S2jAwTyh8-4" value="" style="shape=partialRectangle;collapsible=0;dropTarget=0;pointerEvents=0;fillColor=none;top=0;left=0;bottom=0;right=0;points=[[0,0.5],[1,0.5]];portConstraint=eastwest;" vertex="1" parent="mSsjtaZVwX1S2jAwTyh8-0">
          <mxGeometry y="60" width="160" height="30" as="geometry" />
        </mxCell>
        <mxCell id="mSsjtaZVwX1S2jAwTyh8-5" value="" style="shape=partialRectangle;connectable=0;fillColor=none;top=0;left=0;bottom=0;right=0;editable=1;overflow=hidden;" vertex="1" parent="mSsjtaZVwX1S2jAwTyh8-4">
          <mxGeometry width="30" height="30" as="geometry" />
        </mxCell>
        <mxCell id="mSsjtaZVwX1S2jAwTyh8-6" value="Genero" style="shape=partialRectangle;connectable=0;fillColor=none;top=0;left=0;bottom=0;right=0;align=left;spacingLeft=6;overflow=hidden;" vertex="1" parent="mSsjtaZVwX1S2jAwTyh8-4">
          <mxGeometry x="30" width="130" height="30" as="geometry" />
        </mxCell>
        <mxCell id="mSsjtaZVwX1S2jAwTyh8-7" value="" style="shape=partialRectangle;collapsible=0;dropTarget=0;pointerEvents=0;fillColor=none;top=0;left=0;bottom=0;right=0;points=[[0,0.5],[1,0.5]];portConstraint=eastwest;" vertex="1" parent="mSsjtaZVwX1S2jAwTyh8-0">
          <mxGeometry y="90" width="160" height="30" as="geometry" />
        </mxCell>
        <mxCell id="mSsjtaZVwX1S2jAwTyh8-8" value="" style="shape=partialRectangle;connectable=0;fillColor=none;top=0;left=0;bottom=0;right=0;editable=1;overflow=hidden;" vertex="1" parent="mSsjtaZVwX1S2jAwTyh8-7">
          <mxGeometry width="30" height="30" as="geometry" />
        </mxCell>
        <mxCell id="mSsjtaZVwX1S2jAwTyh8-9" value="" style="shape=partialRectangle;connectable=0;fillColor=none;top=0;left=0;bottom=0;right=0;align=left;spacingLeft=6;overflow=hidden;" vertex="1" parent="mSsjtaZVwX1S2jAwTyh8-7">
          <mxGeometry x="30" width="130" height="30" as="geometry" />
        </mxCell>
        <mxCell id="mSsjtaZVwX1S2jAwTyh8-10" value="" style="shape=partialRectangle;collapsible=0;dropTarget=0;pointerEvents=0;fillColor=none;top=0;left=0;bottom=0;right=0;points=[[0,0.5],[1,0.5]];portConstraint=eastwest;" vertex="1" parent="mSsjtaZVwX1S2jAwTyh8-0">
          <mxGeometry y="120" width="160" height="40" as="geometry" />
        </mxCell>
        <mxCell id="mSsjtaZVwX1S2jAwTyh8-11" value="" style="shape=partialRectangle;connectable=0;fillColor=none;top=0;left=0;bottom=0;right=0;editable=1;overflow=hidden;" vertex="1" parent="mSsjtaZVwX1S2jAwTyh8-10">
          <mxGeometry width="30" height="40" as="geometry" />
        </mxCell>
        <mxCell id="mSsjtaZVwX1S2jAwTyh8-12" value="" style="shape=partialRectangle;connectable=0;fillColor=none;top=0;left=0;bottom=0;right=0;align=left;spacingLeft=6;overflow=hidden;" vertex="1" parent="mSsjtaZVwX1S2jAwTyh8-10">
          <mxGeometry x="30" width="130" height="40" as="geometry" />
        </mxCell>
        <mxCell id="mSsjtaZVwX1S2jAwTyh8-13" value="Editorial" style="shape=table;startSize=30;container=1;collapsible=1;childLayout=tableLayout;fixedRows=1;rowLines=0;fontStyle=1;align=center;resizeLast=1;" vertex="1" parent="bS-e7XpnPPVvGozjsTUE-1">
          <mxGeometry x="560" y="320" width="160" height="240" as="geometry" />
        </mxCell>
        <mxCell id="mSsjtaZVwX1S2jAwTyh8-14" value="" style="shape=partialRectangle;collapsible=0;dropTarget=0;pointerEvents=0;fillColor=none;top=0;left=0;bottom=1;right=0;points=[[0,0.5],[1,0.5]];portConstraint=eastwest;" vertex="1" parent="mSsjtaZVwX1S2jAwTyh8-13">
          <mxGeometry y="30" width="160" height="30" as="geometry" />
        </mxCell>
        <mxCell id="mSsjtaZVwX1S2jAwTyh8-15" value="PK" style="shape=partialRectangle;connectable=0;fillColor=none;top=0;left=0;bottom=0;right=0;fontStyle=1;overflow=hidden;" vertex="1" parent="mSsjtaZVwX1S2jAwTyh8-14">
          <mxGeometry width="30" height="30" as="geometry" />
        </mxCell>
        <mxCell id="mSsjtaZVwX1S2jAwTyh8-16" value="í ¼í¶”Â " style="shape=partialRectangle;connectable=0;fillColor=none;top=0;left=0;bottom=0;right=0;align=left;spacingLeft=6;fontStyle=5;overflow=hidden;" vertex="1" parent="mSsjtaZVwX1S2jAwTyh8-14">
          <mxGeometry x="30" width="130" height="30" as="geometry" />
        </mxCell>
        <mxCell id="mSsjtaZVwX1S2jAwTyh8-17" value="" style="shape=partialRectangle;collapsible=0;dropTarget=0;pointerEvents=0;fillColor=none;top=0;left=0;bottom=0;right=0;points=[[0,0.5],[1,0.5]];portConstraint=eastwest;" vertex="1" parent="mSsjtaZVwX1S2jAwTyh8-13">
          <mxGeometry y="60" width="160" height="30" as="geometry" />
        </mxCell>
        <mxCell id="mSsjtaZVwX1S2jAwTyh8-18" value="" style="shape=partialRectangle;connectable=0;fillColor=none;top=0;left=0;bottom=0;right=0;editable=1;overflow=hidden;" vertex="1" parent="mSsjtaZVwX1S2jAwTyh8-17">
          <mxGeometry width="30" height="30" as="geometry" />
        </mxCell>
        <mxCell id="mSsjtaZVwX1S2jAwTyh8-19" value="Nombre" style="shape=partialRectangle;connectable=0;fillColor=none;top=0;left=0;bottom=0;right=0;align=left;spacingLeft=6;overflow=hidden;" vertex="1" parent="mSsjtaZVwX1S2jAwTyh8-17">
          <mxGeometry x="30" width="130" height="30" as="geometry" />
        </mxCell>
        <mxCell id="mSsjtaZVwX1S2jAwTyh8-20" value="" style="shape=partialRectangle;collapsible=0;dropTarget=0;pointerEvents=0;fillColor=none;top=0;left=0;bottom=0;right=0;points=[[0,0.5],[1,0.5]];portConstraint=eastwest;" vertex="1" parent="mSsjtaZVwX1S2jAwTyh8-13">
          <mxGeometry y="90" width="160" height="30" as="geometry" />
        </mxCell>
        <mxCell id="mSsjtaZVwX1S2jAwTyh8-21" value="" style="shape=partialRectangle;connectable=0;fillColor=none;top=0;left=0;bottom=0;right=0;editable=1;overflow=hidden;" vertex="1" parent="mSsjtaZVwX1S2jAwTyh8-20">
          <mxGeometry width="30" height="30" as="geometry" />
        </mxCell>
        <mxCell id="mSsjtaZVwX1S2jAwTyh8-22" value="DirecciÃ³n" style="shape=partialRectangle;connectable=0;fillColor=none;top=0;left=0;bottom=0;right=0;align=left;spacingLeft=6;overflow=hidden;" vertex="1" parent="mSsjtaZVwX1S2jAwTyh8-20">
          <mxGeometry x="30" width="130" height="30" as="geometry" />
        </mxCell>
        <mxCell id="mSsjtaZVwX1S2jAwTyh8-23" value="" style="shape=partialRectangle;collapsible=0;dropTarget=0;pointerEvents=0;fillColor=none;top=0;left=0;bottom=0;right=0;points=[[0,0.5],[1,0.5]];portConstraint=eastwest;" vertex="1" parent="mSsjtaZVwX1S2jAwTyh8-13">
          <mxGeometry y="120" width="160" height="30" as="geometry" />
        </mxCell>
        <mxCell id="mSsjtaZVwX1S2jAwTyh8-24" value="" style="shape=partialRectangle;connectable=0;fillColor=none;top=0;left=0;bottom=0;right=0;editable=1;overflow=hidden;" vertex="1" parent="mSsjtaZVwX1S2jAwTyh8-23">
          <mxGeometry width="30" height="30" as="geometry" />
        </mxCell>
        <mxCell id="mSsjtaZVwX1S2jAwTyh8-25" value="Contacto" style="shape=partialRectangle;connectable=0;fillColor=none;top=0;left=0;bottom=0;right=0;align=left;spacingLeft=6;overflow=hidden;" vertex="1" parent="mSsjtaZVwX1S2jAwTyh8-23">
          <mxGeometry x="30" width="130" height="30" as="geometry" />
        </mxCell>
        <mxCell id="mSsjtaZVwX1S2jAwTyh8-51" value="" style="shape=partialRectangle;collapsible=0;dropTarget=0;pointerEvents=0;fillColor=none;top=0;left=0;bottom=0;right=0;points=[[0,0.5],[1,0.5]];portConstraint=eastwest;" vertex="1" parent="mSsjtaZVwX1S2jAwTyh8-13">
          <mxGeometry y="150" width="160" height="30" as="geometry" />
        </mxCell>
        <mxCell id="mSsjtaZVwX1S2jAwTyh8-52" value="" style="shape=partialRectangle;connectable=0;fillColor=none;top=0;left=0;bottom=0;right=0;editable=1;overflow=hidden;" vertex="1" parent="mSsjtaZVwX1S2jAwTyh8-51">
          <mxGeometry width="30" height="30" as="geometry" />
        </mxCell>
        <mxCell id="mSsjtaZVwX1S2jAwTyh8-53" value="Correo" style="shape=partialRectangle;connectable=0;fillColor=none;top=0;left=0;bottom=0;right=0;align=left;spacingLeft=6;overflow=hidden;" vertex="1" parent="mSsjtaZVwX1S2jAwTyh8-51">
          <mxGeometry x="30" width="130" height="30" as="geometry" />
        </mxCell>
        <mxCell id="mSsjtaZVwX1S2jAwTyh8-54" value="" style="shape=partialRectangle;collapsible=0;dropTarget=0;pointerEvents=0;fillColor=none;top=0;left=0;bottom=0;right=0;points=[[0,0.5],[1,0.5]];portConstraint=eastwest;" vertex="1" parent="mSsjtaZVwX1S2jAwTyh8-13">
          <mxGeometry y="180" width="160" height="30" as="geometry" />
        </mxCell>
        <mxCell id="mSsjtaZVwX1S2jAwTyh8-55" value="" style="shape=partialRectangle;connectable=0;fillColor=none;top=0;left=0;bottom=0;right=0;editable=1;overflow=hidden;" vertex="1" parent="mSsjtaZVwX1S2jAwTyh8-54">
          <mxGeometry width="30" height="30" as="geometry" />
        </mxCell>
        <mxCell id="mSsjtaZVwX1S2jAwTyh8-56" value="Nacionalidad" style="shape=partialRectangle;connectable=0;fillColor=none;top=0;left=0;bottom=0;right=0;align=left;spacingLeft=6;overflow=hidden;" vertex="1" parent="mSsjtaZVwX1S2jAwTyh8-54">
          <mxGeometry x="30" width="130" height="30" as="geometry" />
        </mxCell>
        <mxCell id="mSsjtaZVwX1S2jAwTyh8-26" value="Autor" style="shape=table;startSize=30;container=1;collapsible=1;childLayout=tableLayout;fixedRows=1;rowLines=0;fontStyle=1;align=center;resizeLast=1;" vertex="1" parent="bS-e7XpnPPVvGozjsTUE-1">
          <mxGeometry x="320" y="160" width="160" height="160" as="geometry" />
        </mxCell>
        <mxCell id="mSsjtaZVwX1S2jAwTyh8-27" value="" style="shape=partialRectangle;collapsible=0;dropTarget=0;pointerEvents=0;fillColor=none;top=0;left=0;bottom=1;right=0;points=[[0,0.5],[1,0.5]];portConstraint=eastwest;" vertex="1" parent="mSsjtaZVwX1S2jAwTyh8-26">
          <mxGeometry y="30" width="160" height="30" as="geometry" />
        </mxCell>
        <mxCell id="mSsjtaZVwX1S2jAwTyh8-28" value="PK" style="shape=partialRectangle;connectable=0;fillColor=none;top=0;left=0;bottom=0;right=0;fontStyle=1;overflow=hidden;" vertex="1" parent="mSsjtaZVwX1S2jAwTyh8-27">
          <mxGeometry width="30" height="30" as="geometry" />
        </mxCell>
        <mxCell id="mSsjtaZVwX1S2jAwTyh8-29" value="í ¼í¶”Â " style="shape=partialRectangle;connectable=0;fillColor=none;top=0;left=0;bottom=0;right=0;align=left;spacingLeft=6;fontStyle=5;overflow=hidden;" vertex="1" parent="mSsjtaZVwX1S2jAwTyh8-27">
          <mxGeometry x="30" width="130" height="30" as="geometry" />
        </mxCell>
        <mxCell id="mSsjtaZVwX1S2jAwTyh8-30" value="" style="shape=partialRectangle;collapsible=0;dropTarget=0;pointerEvents=0;fillColor=none;top=0;left=0;bottom=0;right=0;points=[[0,0.5],[1,0.5]];portConstraint=eastwest;" vertex="1" parent="mSsjtaZVwX1S2jAwTyh8-26">
          <mxGeometry y="60" width="160" height="30" as="geometry" />
        </mxCell>
        <mxCell id="mSsjtaZVwX1S2jAwTyh8-31" value="" style="shape=partialRectangle;connectable=0;fillColor=none;top=0;left=0;bottom=0;right=0;editable=1;overflow=hidden;" vertex="1" parent="mSsjtaZVwX1S2jAwTyh8-30">
          <mxGeometry width="30" height="30" as="geometry" />
        </mxCell>
        <mxCell id="mSsjtaZVwX1S2jAwTyh8-32" value="Autor" style="shape=partialRectangle;connectable=0;fillColor=none;top=0;left=0;bottom=0;right=0;align=left;spacingLeft=6;overflow=hidden;" vertex="1" parent="mSsjtaZVwX1S2jAwTyh8-30">
          <mxGeometry x="30" width="130" height="30" as="geometry" />
        </mxCell>
        <mxCell id="mSsjtaZVwX1S2jAwTyh8-33" value="" style="shape=partialRectangle;collapsible=0;dropTarget=0;pointerEvents=0;fillColor=none;top=0;left=0;bottom=0;right=0;points=[[0,0.5],[1,0.5]];portConstraint=eastwest;" vertex="1" parent="mSsjtaZVwX1S2jAwTyh8-26">
          <mxGeometry y="90" width="160" height="30" as="geometry" />
        </mxCell>
        <mxCell id="mSsjtaZVwX1S2jAwTyh8-34" value="" style="shape=partialRectangle;connectable=0;fillColor=none;top=0;left=0;bottom=0;right=0;editable=1;overflow=hidden;" vertex="1" parent="mSsjtaZVwX1S2jAwTyh8-33">
          <mxGeometry width="30" height="30" as="geometry" />
        </mxCell>
        <mxCell id="mSsjtaZVwX1S2jAwTyh8-35" value="Nacionalidad" style="shape=partialRectangle;connectable=0;fillColor=none;top=0;left=0;bottom=0;right=0;align=left;spacingLeft=6;overflow=hidden;" vertex="1" parent="mSsjtaZVwX1S2jAwTyh8-33">
          <mxGeometry x="30" width="130" height="30" as="geometry" />
        </mxCell>
        <mxCell id="mSsjtaZVwX1S2jAwTyh8-36" value="" style="shape=partialRectangle;collapsible=0;dropTarget=0;pointerEvents=0;fillColor=none;top=0;left=0;bottom=0;right=0;points=[[0,0.5],[1,0.5]];portConstraint=eastwest;" vertex="1" parent="mSsjtaZVwX1S2jAwTyh8-26">
          <mxGeometry y="120" width="160" height="30" as="geometry" />
        </mxCell>
        <mxCell id="mSsjtaZVwX1S2jAwTyh8-37" value="" style="shape=partialRectangle;connectable=0;fillColor=none;top=0;left=0;bottom=0;right=0;editable=1;overflow=hidden;" vertex="1" parent="mSsjtaZVwX1S2jAwTyh8-36">
          <mxGeometry width="30" height="30" as="geometry" />
        </mxCell>
        <mxCell id="mSsjtaZVwX1S2jAwTyh8-38" value="" style="shape=partialRectangle;connectable=0;fillColor=none;top=0;left=0;bottom=0;right=0;align=left;spacingLeft=6;overflow=hidden;" vertex="1" parent="mSsjtaZVwX1S2jAwTyh8-36">
          <mxGeometry x="30" width="130" height="30" as="geometry" />
        </mxCell>
        <mxCell id="mSsjtaZVwX1S2jAwTyh8-69" value="" style="edgeStyle=entityRelationEdgeStyle;fontSize=12;html=1;endArrow=ERoneToMany;exitX=0;exitY=0.5;exitDx=0;exitDy=0;" edge="1" parent="bS-e7XpnPPVvGozjsTUE-1" source="mSsjtaZVwX1S2jAwTyh8-27" target="cxfsNNVY0mn9U3lUqanO-7">
          <mxGeometry width="100" height="100" relative="1" as="geometry">
            <mxPoint x="300" y="390" as="sourcePoint" />
            <mxPoint x="400" y="290" as="targetPoint" />
          </mxGeometry>
        </mxCell>
        <mxCell id="mSsjtaZVwX1S2jAwTyh8-71" value="" style="edgeStyle=entityRelationEdgeStyle;fontSize=12;html=1;endArrow=ERoneToMany;exitX=0;exitY=0.5;exitDx=0;exitDy=0;" edge="1" parent="bS-e7XpnPPVvGozjsTUE-1" source="mSsjtaZVwX1S2jAwTyh8-14" target="cxfsNNVY0mn9U3lUqanO-10">
          <mxGeometry width="100" height="100" relative="1" as="geometry">
            <mxPoint x="300" y="390" as="sourcePoint" />
            <mxPoint x="400" y="290" as="targetPoint" />
          </mxGeometry>
        </mxCell>
        <mxCell id="mSsjtaZVwX1S2jAwTyh8-72" value="" style="edgeStyle=entityRelationEdgeStyle;fontSize=12;html=1;endArrow=ERoneToMany;" edge="1" parent="bS-e7XpnPPVvGozjsTUE-1" source="mSsjtaZVwX1S2jAwTyh8-1" target="mSsjtaZVwX1S2jAwTyh8-57">
          <mxGeometry width="100" height="100" relative="1" as="geometry">
            <mxPoint x="300" y="390" as="sourcePoint" />
            <mxPoint x="400" y="290" as="targetPoint" />
          </mxGeometry>
        </mxCell>
      </root>
    </mxGraphModel>
  </diagram>
  <diagram id="0G25CnmKws0PAgpT1w0i" name="Page-2">
    <mxGraphModel dx="868" dy="492" grid="1" gridSize="10" guides="1" tooltips="1" connect="1" arrows="1" fold="1" page="1" pageScale="1" pageWidth="850" pageHeight="1100" math="0" shadow="0">
      <root>
        <mxCell id="0" />
        <mxCell id="1" parent="0" />
        <mxCell id="mnixo42vS2QTnkZEOLGy-1" value="Empleado" style="shape=table;startSize=30;container=1;collapsible=1;childLayout=tableLayout;fixedRows=1;rowLines=0;fontStyle=1;align=center;resizeLast=1;" parent="1" vertex="1">
          <mxGeometry x="40" y="120" width="160" height="160" as="geometry" />
        </mxCell>
        <mxCell id="mnixo42vS2QTnkZEOLGy-2" value="" style="shape=partialRectangle;collapsible=0;dropTarget=0;pointerEvents=0;fillColor=none;top=0;left=0;bottom=1;right=0;points=[[0,0.5],[1,0.5]];portConstraint=eastwest;" parent="mnixo42vS2QTnkZEOLGy-1" vertex="1">
          <mxGeometry y="30" width="160" height="30" as="geometry" />
        </mxCell>
        <mxCell id="mnixo42vS2QTnkZEOLGy-3" value="PK" style="shape=partialRectangle;connectable=0;fillColor=none;top=0;left=0;bottom=0;right=0;fontStyle=1;overflow=hidden;" parent="mnixo42vS2QTnkZEOLGy-2" vertex="1">
          <mxGeometry width="30" height="30" as="geometry" />
        </mxCell>
        <mxCell id="mnixo42vS2QTnkZEOLGy-4" value="í ¼í¶”Â " style="shape=partialRectangle;connectable=0;fillColor=none;top=0;left=0;bottom=0;right=0;align=left;spacingLeft=6;fontStyle=5;overflow=hidden;" parent="mnixo42vS2QTnkZEOLGy-2" vertex="1">
          <mxGeometry x="30" width="130" height="30" as="geometry" />
        </mxCell>
        <mxCell id="mnixo42vS2QTnkZEOLGy-5" value="" style="shape=partialRectangle;collapsible=0;dropTarget=0;pointerEvents=0;fillColor=none;top=0;left=0;bottom=0;right=0;points=[[0,0.5],[1,0.5]];portConstraint=eastwest;" parent="mnixo42vS2QTnkZEOLGy-1" vertex="1">
          <mxGeometry y="60" width="160" height="30" as="geometry" />
        </mxCell>
        <mxCell id="mnixo42vS2QTnkZEOLGy-6" value="" style="shape=partialRectangle;connectable=0;fillColor=none;top=0;left=0;bottom=0;right=0;editable=1;overflow=hidden;" parent="mnixo42vS2QTnkZEOLGy-5" vertex="1">
          <mxGeometry width="30" height="30" as="geometry" />
        </mxCell>
        <mxCell id="mnixo42vS2QTnkZEOLGy-7" value="Nombre" style="shape=partialRectangle;connectable=0;fillColor=none;top=0;left=0;bottom=0;right=0;align=left;spacingLeft=6;overflow=hidden;" parent="mnixo42vS2QTnkZEOLGy-5" vertex="1">
          <mxGeometry x="30" width="130" height="30" as="geometry" />
        </mxCell>
        <mxCell id="mnixo42vS2QTnkZEOLGy-8" value="" style="shape=partialRectangle;collapsible=0;dropTarget=0;pointerEvents=0;fillColor=none;top=0;left=0;bottom=0;right=0;points=[[0,0.5],[1,0.5]];portConstraint=eastwest;" parent="mnixo42vS2QTnkZEOLGy-1" vertex="1">
          <mxGeometry y="90" width="160" height="30" as="geometry" />
        </mxCell>
        <mxCell id="mnixo42vS2QTnkZEOLGy-9" value="" style="shape=partialRectangle;connectable=0;fillColor=none;top=0;left=0;bottom=0;right=0;editable=1;overflow=hidden;" parent="mnixo42vS2QTnkZEOLGy-8" vertex="1">
          <mxGeometry width="30" height="30" as="geometry" />
        </mxCell>
        <mxCell id="mnixo42vS2QTnkZEOLGy-10" value="Apellido" style="shape=partialRectangle;connectable=0;fillColor=none;top=0;left=0;bottom=0;right=0;align=left;spacingLeft=6;overflow=hidden;" parent="mnixo42vS2QTnkZEOLGy-8" vertex="1">
          <mxGeometry x="30" width="130" height="30" as="geometry" />
        </mxCell>
        <mxCell id="mnixo42vS2QTnkZEOLGy-11" value="" style="shape=partialRectangle;collapsible=0;dropTarget=0;pointerEvents=0;fillColor=none;top=0;left=0;bottom=0;right=0;points=[[0,0.5],[1,0.5]];portConstraint=eastwest;" parent="mnixo42vS2QTnkZEOLGy-1" vertex="1">
          <mxGeometry y="120" width="160" height="30" as="geometry" />
        </mxCell>
        <mxCell id="mnixo42vS2QTnkZEOLGy-12" value="" style="shape=partialRectangle;connectable=0;fillColor=none;top=0;left=0;bottom=0;right=0;editable=1;overflow=hidden;" parent="mnixo42vS2QTnkZEOLGy-11" vertex="1">
          <mxGeometry width="30" height="30" as="geometry" />
        </mxCell>
        <mxCell id="mnixo42vS2QTnkZEOLGy-13" value="Row 3" style="shape=partialRectangle;connectable=0;fillColor=none;top=0;left=0;bottom=0;right=0;align=left;spacingLeft=6;overflow=hidden;" parent="mnixo42vS2QTnkZEOLGy-11" vertex="1">
          <mxGeometry x="30" width="130" height="30" as="geometry" />
        </mxCell>
        <mxCell id="mnixo42vS2QTnkZEOLGy-14" value="Alumno" style="shape=table;startSize=30;container=1;collapsible=1;childLayout=tableLayout;fixedRows=1;rowLines=0;fontStyle=1;align=center;resizeLast=1;" parent="1" vertex="1">
          <mxGeometry x="320" y="120" width="160" height="240" as="geometry" />
        </mxCell>
        <mxCell id="mnixo42vS2QTnkZEOLGy-15" value="" style="shape=partialRectangle;collapsible=0;dropTarget=0;pointerEvents=0;fillColor=none;top=0;left=0;bottom=1;right=0;points=[[0,0.5],[1,0.5]];portConstraint=eastwest;" parent="mnixo42vS2QTnkZEOLGy-14" vertex="1">
          <mxGeometry y="30" width="160" height="30" as="geometry" />
        </mxCell>
        <mxCell id="mnixo42vS2QTnkZEOLGy-16" value="PK" style="shape=partialRectangle;connectable=0;fillColor=none;top=0;left=0;bottom=0;right=0;fontStyle=1;overflow=hidden;" parent="mnixo42vS2QTnkZEOLGy-15" vertex="1">
          <mxGeometry width="30" height="30" as="geometry" />
        </mxCell>
        <mxCell id="mnixo42vS2QTnkZEOLGy-17" value="í ¼í¶”Â " style="shape=partialRectangle;connectable=0;fillColor=none;top=0;left=0;bottom=0;right=0;align=left;spacingLeft=6;fontStyle=5;overflow=hidden;" parent="mnixo42vS2QTnkZEOLGy-15" vertex="1">
          <mxGeometry x="30" width="130" height="30" as="geometry" />
        </mxCell>
        <mxCell id="mnixo42vS2QTnkZEOLGy-18" value="" style="shape=partialRectangle;collapsible=0;dropTarget=0;pointerEvents=0;fillColor=none;top=0;left=0;bottom=0;right=0;points=[[0,0.5],[1,0.5]];portConstraint=eastwest;" parent="mnixo42vS2QTnkZEOLGy-14" vertex="1">
          <mxGeometry y="60" width="160" height="30" as="geometry" />
        </mxCell>
        <mxCell id="mnixo42vS2QTnkZEOLGy-19" value="FK" style="shape=partialRectangle;connectable=0;fillColor=none;top=0;left=0;bottom=0;right=0;editable=1;overflow=hidden;" parent="mnixo42vS2QTnkZEOLGy-18" vertex="1">
          <mxGeometry width="30" height="30" as="geometry" />
        </mxCell>
        <mxCell id="mnixo42vS2QTnkZEOLGy-20" value="Carnet" style="shape=partialRectangle;connectable=0;fillColor=none;top=0;left=0;bottom=0;right=0;align=left;spacingLeft=6;overflow=hidden;" parent="mnixo42vS2QTnkZEOLGy-18" vertex="1">
          <mxGeometry x="30" width="130" height="30" as="geometry" />
        </mxCell>
        <mxCell id="mnixo42vS2QTnkZEOLGy-21" value="" style="shape=partialRectangle;collapsible=0;dropTarget=0;pointerEvents=0;fillColor=none;top=0;left=0;bottom=0;right=0;points=[[0,0.5],[1,0.5]];portConstraint=eastwest;" parent="mnixo42vS2QTnkZEOLGy-14" vertex="1">
          <mxGeometry y="90" width="160" height="30" as="geometry" />
        </mxCell>
        <mxCell id="mnixo42vS2QTnkZEOLGy-22" value="" style="shape=partialRectangle;connectable=0;fillColor=none;top=0;left=0;bottom=0;right=0;editable=1;overflow=hidden;" parent="mnixo42vS2QTnkZEOLGy-21" vertex="1">
          <mxGeometry width="30" height="30" as="geometry" />
        </mxCell>
        <mxCell id="mnixo42vS2QTnkZEOLGy-23" value="Nombre" style="shape=partialRectangle;connectable=0;fillColor=none;top=0;left=0;bottom=0;right=0;align=left;spacingLeft=6;overflow=hidden;" parent="mnixo42vS2QTnkZEOLGy-21" vertex="1">
          <mxGeometry x="30" width="130" height="30" as="geometry" />
        </mxCell>
        <mxCell id="mnixo42vS2QTnkZEOLGy-24" value="" style="shape=partialRectangle;collapsible=0;dropTarget=0;pointerEvents=0;fillColor=none;top=0;left=0;bottom=0;right=0;points=[[0,0.5],[1,0.5]];portConstraint=eastwest;" parent="mnixo42vS2QTnkZEOLGy-14" vertex="1">
          <mxGeometry y="120" width="160" height="30" as="geometry" />
        </mxCell>
        <mxCell id="mnixo42vS2QTnkZEOLGy-25" value="" style="shape=partialRectangle;connectable=0;fillColor=none;top=0;left=0;bottom=0;right=0;editable=1;overflow=hidden;" parent="mnixo42vS2QTnkZEOLGy-24" vertex="1">
          <mxGeometry width="30" height="30" as="geometry" />
        </mxCell>
        <mxCell id="mnixo42vS2QTnkZEOLGy-26" value="Apellido" style="shape=partialRectangle;connectable=0;fillColor=none;top=0;left=0;bottom=0;right=0;align=left;spacingLeft=6;overflow=hidden;" parent="mnixo42vS2QTnkZEOLGy-24" vertex="1">
          <mxGeometry x="30" width="130" height="30" as="geometry" />
        </mxCell>
        <mxCell id="mnixo42vS2QTnkZEOLGy-59" value="" style="shape=partialRectangle;collapsible=0;dropTarget=0;pointerEvents=0;fillColor=none;top=0;left=0;bottom=0;right=0;points=[[0,0.5],[1,0.5]];portConstraint=eastwest;" parent="mnixo42vS2QTnkZEOLGy-14" vertex="1">
          <mxGeometry y="150" width="160" height="30" as="geometry" />
        </mxCell>
        <mxCell id="mnixo42vS2QTnkZEOLGy-60" value="" style="shape=partialRectangle;connectable=0;fillColor=none;top=0;left=0;bottom=0;right=0;editable=1;overflow=hidden;" parent="mnixo42vS2QTnkZEOLGy-59" vertex="1">
          <mxGeometry width="30" height="30" as="geometry" />
        </mxCell>
        <mxCell id="mnixo42vS2QTnkZEOLGy-61" value="Fecha_Ingreso" style="shape=partialRectangle;connectable=0;fillColor=none;top=0;left=0;bottom=0;right=0;align=left;spacingLeft=6;overflow=hidden;" parent="mnixo42vS2QTnkZEOLGy-59" vertex="1">
          <mxGeometry x="30" width="130" height="30" as="geometry" />
        </mxCell>
        <mxCell id="mnixo42vS2QTnkZEOLGy-27" value="" style="shape=partialRectangle;collapsible=0;dropTarget=0;pointerEvents=0;fillColor=none;top=0;left=0;bottom=0;right=0;points=[[0,0.5],[1,0.5]];portConstraint=eastwest;" parent="mnixo42vS2QTnkZEOLGy-14" vertex="1">
          <mxGeometry y="180" width="160" height="30" as="geometry" />
        </mxCell>
        <mxCell id="mnixo42vS2QTnkZEOLGy-28" value="" style="shape=partialRectangle;connectable=0;fillColor=none;top=0;left=0;bottom=0;right=0;editable=1;overflow=hidden;" parent="mnixo42vS2QTnkZEOLGy-27" vertex="1">
          <mxGeometry width="30" height="30" as="geometry" />
        </mxCell>
        <mxCell id="mnixo42vS2QTnkZEOLGy-29" value="Id_Facultad" style="shape=partialRectangle;connectable=0;fillColor=none;top=0;left=0;bottom=0;right=0;align=left;spacingLeft=6;overflow=hidden;" parent="mnixo42vS2QTnkZEOLGy-27" vertex="1">
          <mxGeometry x="30" width="130" height="30" as="geometry" />
        </mxCell>
        <mxCell id="mnixo42vS2QTnkZEOLGy-30" value="" style="shape=partialRectangle;collapsible=0;dropTarget=0;pointerEvents=0;fillColor=none;top=0;left=0;bottom=0;right=0;points=[[0,0.5],[1,0.5]];portConstraint=eastwest;" parent="mnixo42vS2QTnkZEOLGy-14" vertex="1">
          <mxGeometry y="210" width="160" height="30" as="geometry" />
        </mxCell>
        <mxCell id="mnixo42vS2QTnkZEOLGy-31" value="" style="shape=partialRectangle;connectable=0;fillColor=none;top=0;left=0;bottom=0;right=0;editable=1;overflow=hidden;" parent="mnixo42vS2QTnkZEOLGy-30" vertex="1">
          <mxGeometry width="30" height="30" as="geometry" />
        </mxCell>
        <mxCell id="mnixo42vS2QTnkZEOLGy-32" value="id_Carrera" style="shape=partialRectangle;connectable=0;fillColor=none;top=0;left=0;bottom=0;right=0;align=left;spacingLeft=6;overflow=hidden;" parent="mnixo42vS2QTnkZEOLGy-30" vertex="1">
          <mxGeometry x="30" width="130" height="30" as="geometry" />
        </mxCell>
        <mxCell id="mnixo42vS2QTnkZEOLGy-33" value="Facultad" style="shape=table;startSize=30;container=1;collapsible=1;childLayout=tableLayout;fixedRows=1;rowLines=0;fontStyle=1;align=center;resizeLast=1;" parent="1" vertex="1">
          <mxGeometry x="600" y="120" width="160" height="160" as="geometry" />
        </mxCell>
        <mxCell id="mnixo42vS2QTnkZEOLGy-34" value="" style="shape=partialRectangle;collapsible=0;dropTarget=0;pointerEvents=0;fillColor=none;top=0;left=0;bottom=1;right=0;points=[[0,0.5],[1,0.5]];portConstraint=eastwest;" parent="mnixo42vS2QTnkZEOLGy-33" vertex="1">
          <mxGeometry y="30" width="160" height="30" as="geometry" />
        </mxCell>
        <mxCell id="mnixo42vS2QTnkZEOLGy-35" value="PK" style="shape=partialRectangle;connectable=0;fillColor=none;top=0;left=0;bottom=0;right=0;fontStyle=1;overflow=hidden;" parent="mnixo42vS2QTnkZEOLGy-34" vertex="1">
          <mxGeometry width="30" height="30" as="geometry" />
        </mxCell>
        <mxCell id="mnixo42vS2QTnkZEOLGy-36" value="í ¼í¶”Â " style="shape=partialRectangle;connectable=0;fillColor=none;top=0;left=0;bottom=0;right=0;align=left;spacingLeft=6;fontStyle=5;overflow=hidden;" parent="mnixo42vS2QTnkZEOLGy-34" vertex="1">
          <mxGeometry x="30" width="130" height="30" as="geometry" />
        </mxCell>
        <mxCell id="mnixo42vS2QTnkZEOLGy-37" value="" style="shape=partialRectangle;collapsible=0;dropTarget=0;pointerEvents=0;fillColor=none;top=0;left=0;bottom=0;right=0;points=[[0,0.5],[1,0.5]];portConstraint=eastwest;" parent="mnixo42vS2QTnkZEOLGy-33" vertex="1">
          <mxGeometry y="60" width="160" height="30" as="geometry" />
        </mxCell>
        <mxCell id="mnixo42vS2QTnkZEOLGy-38" value="" style="shape=partialRectangle;connectable=0;fillColor=none;top=0;left=0;bottom=0;right=0;editable=1;overflow=hidden;" parent="mnixo42vS2QTnkZEOLGy-37" vertex="1">
          <mxGeometry width="30" height="30" as="geometry" />
        </mxCell>
        <mxCell id="mnixo42vS2QTnkZEOLGy-39" value="Nombre" style="shape=partialRectangle;connectable=0;fillColor=none;top=0;left=0;bottom=0;right=0;align=left;spacingLeft=6;overflow=hidden;" parent="mnixo42vS2QTnkZEOLGy-37" vertex="1">
          <mxGeometry x="30" width="130" height="30" as="geometry" />
        </mxCell>
        <mxCell id="mnixo42vS2QTnkZEOLGy-40" value="" style="shape=partialRectangle;collapsible=0;dropTarget=0;pointerEvents=0;fillColor=none;top=0;left=0;bottom=0;right=0;points=[[0,0.5],[1,0.5]];portConstraint=eastwest;" parent="mnixo42vS2QTnkZEOLGy-33" vertex="1">
          <mxGeometry y="90" width="160" height="30" as="geometry" />
        </mxCell>
        <mxCell id="mnixo42vS2QTnkZEOLGy-41" value="" style="shape=partialRectangle;connectable=0;fillColor=none;top=0;left=0;bottom=0;right=0;editable=1;overflow=hidden;" parent="mnixo42vS2QTnkZEOLGy-40" vertex="1">
          <mxGeometry width="30" height="30" as="geometry" />
        </mxCell>
        <mxCell id="mnixo42vS2QTnkZEOLGy-42" value="" style="shape=partialRectangle;connectable=0;fillColor=none;top=0;left=0;bottom=0;right=0;align=left;spacingLeft=6;overflow=hidden;" parent="mnixo42vS2QTnkZEOLGy-40" vertex="1">
          <mxGeometry x="30" width="130" height="30" as="geometry" />
        </mxCell>
        <mxCell id="mnixo42vS2QTnkZEOLGy-43" value="" style="shape=partialRectangle;collapsible=0;dropTarget=0;pointerEvents=0;fillColor=none;top=0;left=0;bottom=0;right=0;points=[[0,0.5],[1,0.5]];portConstraint=eastwest;" parent="mnixo42vS2QTnkZEOLGy-33" vertex="1">
          <mxGeometry y="120" width="160" height="30" as="geometry" />
        </mxCell>
        <mxCell id="mnixo42vS2QTnkZEOLGy-44" value="" style="shape=partialRectangle;connectable=0;fillColor=none;top=0;left=0;bottom=0;right=0;editable=1;overflow=hidden;" parent="mnixo42vS2QTnkZEOLGy-43" vertex="1">
          <mxGeometry width="30" height="30" as="geometry" />
        </mxCell>
        <mxCell id="mnixo42vS2QTnkZEOLGy-45" value="" style="shape=partialRectangle;connectable=0;fillColor=none;top=0;left=0;bottom=0;right=0;align=left;spacingLeft=6;overflow=hidden;" parent="mnixo42vS2QTnkZEOLGy-43" vertex="1">
          <mxGeometry x="30" width="130" height="30" as="geometry" />
        </mxCell>
        <mxCell id="mnixo42vS2QTnkZEOLGy-46" value="Carrera" style="shape=table;startSize=30;container=1;collapsible=1;childLayout=tableLayout;fixedRows=1;rowLines=0;fontStyle=1;align=center;resizeLast=1;" parent="1" vertex="1">
          <mxGeometry x="600" y="360" width="160" height="160" as="geometry" />
        </mxCell>
        <mxCell id="mnixo42vS2QTnkZEOLGy-47" value="" style="shape=partialRectangle;collapsible=0;dropTarget=0;pointerEvents=0;fillColor=none;top=0;left=0;bottom=1;right=0;points=[[0,0.5],[1,0.5]];portConstraint=eastwest;" parent="mnixo42vS2QTnkZEOLGy-46" vertex="1">
          <mxGeometry y="30" width="160" height="30" as="geometry" />
        </mxCell>
        <mxCell id="mnixo42vS2QTnkZEOLGy-48" value="PK" style="shape=partialRectangle;connectable=0;fillColor=none;top=0;left=0;bottom=0;right=0;fontStyle=1;overflow=hidden;" parent="mnixo42vS2QTnkZEOLGy-47" vertex="1">
          <mxGeometry width="30" height="30" as="geometry" />
        </mxCell>
        <mxCell id="mnixo42vS2QTnkZEOLGy-49" value="í ¼í¶”Â " style="shape=partialRectangle;connectable=0;fillColor=none;top=0;left=0;bottom=0;right=0;align=left;spacingLeft=6;fontStyle=5;overflow=hidden;" parent="mnixo42vS2QTnkZEOLGy-47" vertex="1">
          <mxGeometry x="30" width="130" height="30" as="geometry" />
        </mxCell>
        <mxCell id="mnixo42vS2QTnkZEOLGy-50" value="" style="shape=partialRectangle;collapsible=0;dropTarget=0;pointerEvents=0;fillColor=none;top=0;left=0;bottom=0;right=0;points=[[0,0.5],[1,0.5]];portConstraint=eastwest;" parent="mnixo42vS2QTnkZEOLGy-46" vertex="1">
          <mxGeometry y="60" width="160" height="30" as="geometry" />
        </mxCell>
        <mxCell id="mnixo42vS2QTnkZEOLGy-51" value="" style="shape=partialRectangle;connectable=0;fillColor=none;top=0;left=0;bottom=0;right=0;editable=1;overflow=hidden;" parent="mnixo42vS2QTnkZEOLGy-50" vertex="1">
          <mxGeometry width="30" height="30" as="geometry" />
        </mxCell>
        <mxCell id="mnixo42vS2QTnkZEOLGy-52" value="Carrera" style="shape=partialRectangle;connectable=0;fillColor=none;top=0;left=0;bottom=0;right=0;align=left;spacingLeft=6;overflow=hidden;" parent="mnixo42vS2QTnkZEOLGy-50" vertex="1">
          <mxGeometry x="30" width="130" height="30" as="geometry" />
        </mxCell>
        <mxCell id="mnixo42vS2QTnkZEOLGy-53" value="" style="shape=partialRectangle;collapsible=0;dropTarget=0;pointerEvents=0;fillColor=none;top=0;left=0;bottom=0;right=0;points=[[0,0.5],[1,0.5]];portConstraint=eastwest;" parent="mnixo42vS2QTnkZEOLGy-46" vertex="1">
          <mxGeometry y="90" width="160" height="30" as="geometry" />
        </mxCell>
        <mxCell id="mnixo42vS2QTnkZEOLGy-54" value="" style="shape=partialRectangle;connectable=0;fillColor=none;top=0;left=0;bottom=0;right=0;editable=1;overflow=hidden;" parent="mnixo42vS2QTnkZEOLGy-53" vertex="1">
          <mxGeometry width="30" height="30" as="geometry" />
        </mxCell>
        <mxCell id="mnixo42vS2QTnkZEOLGy-55" value="id_Facultad" style="shape=partialRectangle;connectable=0;fillColor=none;top=0;left=0;bottom=0;right=0;align=left;spacingLeft=6;overflow=hidden;" parent="mnixo42vS2QTnkZEOLGy-53" vertex="1">
          <mxGeometry x="30" width="130" height="30" as="geometry" />
        </mxCell>
        <mxCell id="mnixo42vS2QTnkZEOLGy-56" value="" style="shape=partialRectangle;collapsible=0;dropTarget=0;pointerEvents=0;fillColor=none;top=0;left=0;bottom=0;right=0;points=[[0,0.5],[1,0.5]];portConstraint=eastwest;" parent="mnixo42vS2QTnkZEOLGy-46" vertex="1">
          <mxGeometry y="120" width="160" height="30" as="geometry" />
        </mxCell>
        <mxCell id="mnixo42vS2QTnkZEOLGy-57" value="" style="shape=partialRectangle;connectable=0;fillColor=none;top=0;left=0;bottom=0;right=0;editable=1;overflow=hidden;" parent="mnixo42vS2QTnkZEOLGy-56" vertex="1">
          <mxGeometry width="30" height="30" as="geometry" />
        </mxCell>
        <mxCell id="mnixo42vS2QTnkZEOLGy-58" value="" style="shape=partialRectangle;connectable=0;fillColor=none;top=0;left=0;bottom=0;right=0;align=left;spacingLeft=6;overflow=hidden;" parent="mnixo42vS2QTnkZEOLGy-56" vertex="1">
          <mxGeometry x="30" width="130" height="30" as="geometry" />
        </mxCell>
        <mxCell id="mnixo42vS2QTnkZEOLGy-64" value="Prestamo" style="shape=table;startSize=30;container=1;collapsible=1;childLayout=tableLayout;fixedRows=1;rowLines=0;fontStyle=1;align=center;resizeLast=1;" parent="1" vertex="1">
          <mxGeometry x="40" y="360" width="160" height="200" as="geometry" />
        </mxCell>
        <mxCell id="mnixo42vS2QTnkZEOLGy-65" value="" style="shape=partialRectangle;collapsible=0;dropTarget=0;pointerEvents=0;fillColor=none;top=0;left=0;bottom=1;right=0;points=[[0,0.5],[1,0.5]];portConstraint=eastwest;" parent="mnixo42vS2QTnkZEOLGy-64" vertex="1">
          <mxGeometry y="30" width="160" height="30" as="geometry" />
        </mxCell>
        <mxCell id="mnixo42vS2QTnkZEOLGy-66" value="PK" style="shape=partialRectangle;connectable=0;fillColor=none;top=0;left=0;bottom=0;right=0;fontStyle=1;overflow=hidden;" parent="mnixo42vS2QTnkZEOLGy-65" vertex="1">
          <mxGeometry width="30" height="30" as="geometry" />
        </mxCell>
        <mxCell id="mnixo42vS2QTnkZEOLGy-67" value="í ¼í¶”Â " style="shape=partialRectangle;connectable=0;fillColor=none;top=0;left=0;bottom=0;right=0;align=left;spacingLeft=6;fontStyle=5;overflow=hidden;" parent="mnixo42vS2QTnkZEOLGy-65" vertex="1">
          <mxGeometry x="30" width="130" height="30" as="geometry" />
        </mxCell>
        <mxCell id="mnixo42vS2QTnkZEOLGy-68" value="" style="shape=partialRectangle;collapsible=0;dropTarget=0;pointerEvents=0;fillColor=none;top=0;left=0;bottom=0;right=0;points=[[0,0.5],[1,0.5]];portConstraint=eastwest;" parent="mnixo42vS2QTnkZEOLGy-64" vertex="1">
          <mxGeometry y="60" width="160" height="30" as="geometry" />
        </mxCell>
        <mxCell id="mnixo42vS2QTnkZEOLGy-69" value="FK" style="shape=partialRectangle;connectable=0;fillColor=none;top=0;left=0;bottom=0;right=0;editable=1;overflow=hidden;" parent="mnixo42vS2QTnkZEOLGy-68" vertex="1">
          <mxGeometry width="30" height="30" as="geometry" />
        </mxCell>
        <mxCell id="mnixo42vS2QTnkZEOLGy-70" value="Carnet_Alumno" style="shape=partialRectangle;connectable=0;fillColor=none;top=0;left=0;bottom=0;right=0;align=left;spacingLeft=6;overflow=hidden;" parent="mnixo42vS2QTnkZEOLGy-68" vertex="1">
          <mxGeometry x="30" width="130" height="30" as="geometry" />
        </mxCell>
        <mxCell id="mnixo42vS2QTnkZEOLGy-71" value="" style="shape=partialRectangle;collapsible=0;dropTarget=0;pointerEvents=0;fillColor=none;top=0;left=0;bottom=0;right=0;points=[[0,0.5],[1,0.5]];portConstraint=eastwest;" parent="mnixo42vS2QTnkZEOLGy-64" vertex="1">
          <mxGeometry y="90" width="160" height="30" as="geometry" />
        </mxCell>
        <mxCell id="mnixo42vS2QTnkZEOLGy-72" value="" style="shape=partialRectangle;connectable=0;fillColor=none;top=0;left=0;bottom=0;right=0;editable=1;overflow=hidden;" parent="mnixo42vS2QTnkZEOLGy-71" vertex="1">
          <mxGeometry width="30" height="30" as="geometry" />
        </mxCell>
        <mxCell id="mnixo42vS2QTnkZEOLGy-73" value="Id_Libro" style="shape=partialRectangle;connectable=0;fillColor=none;top=0;left=0;bottom=0;right=0;align=left;spacingLeft=6;overflow=hidden;" parent="mnixo42vS2QTnkZEOLGy-71" vertex="1">
          <mxGeometry x="30" width="130" height="30" as="geometry" />
        </mxCell>
        <mxCell id="mnixo42vS2QTnkZEOLGy-74" value="" style="shape=partialRectangle;collapsible=0;dropTarget=0;pointerEvents=0;fillColor=none;top=0;left=0;bottom=0;right=0;points=[[0,0.5],[1,0.5]];portConstraint=eastwest;" parent="mnixo42vS2QTnkZEOLGy-64" vertex="1">
          <mxGeometry y="120" width="160" height="30" as="geometry" />
        </mxCell>
        <mxCell id="mnixo42vS2QTnkZEOLGy-75" value="" style="shape=partialRectangle;connectable=0;fillColor=none;top=0;left=0;bottom=0;right=0;editable=1;overflow=hidden;" parent="mnixo42vS2QTnkZEOLGy-74" vertex="1">
          <mxGeometry width="30" height="30" as="geometry" />
        </mxCell>
        <mxCell id="mnixo42vS2QTnkZEOLGy-76" value="Fecha_Prestamo" style="shape=partialRectangle;connectable=0;fillColor=none;top=0;left=0;bottom=0;right=0;align=left;spacingLeft=6;overflow=hidden;" parent="mnixo42vS2QTnkZEOLGy-74" vertex="1">
          <mxGeometry x="30" width="130" height="30" as="geometry" />
        </mxCell>
        <mxCell id="mnixo42vS2QTnkZEOLGy-93" value="" style="shape=partialRectangle;collapsible=0;dropTarget=0;pointerEvents=0;fillColor=none;top=0;left=0;bottom=0;right=0;points=[[0,0.5],[1,0.5]];portConstraint=eastwest;" parent="mnixo42vS2QTnkZEOLGy-64" vertex="1">
          <mxGeometry y="150" width="160" height="30" as="geometry" />
        </mxCell>
        <mxCell id="mnixo42vS2QTnkZEOLGy-94" value="" style="shape=partialRectangle;connectable=0;fillColor=none;top=0;left=0;bottom=0;right=0;editable=1;overflow=hidden;" parent="mnixo42vS2QTnkZEOLGy-93" vertex="1">
          <mxGeometry width="30" height="30" as="geometry" />
        </mxCell>
        <mxCell id="mnixo42vS2QTnkZEOLGy-95" value="id_Empleado" style="shape=partialRectangle;connectable=0;fillColor=none;top=0;left=0;bottom=0;right=0;align=left;spacingLeft=6;overflow=hidden;" parent="mnixo42vS2QTnkZEOLGy-93" vertex="1">
          <mxGeometry x="30" width="130" height="30" as="geometry" />
        </mxCell>
        <mxCell id="mnixo42vS2QTnkZEOLGy-77" value="Libro" style="shape=table;startSize=30;container=1;collapsible=1;childLayout=tableLayout;fixedRows=1;rowLines=0;fontStyle=1;align=center;resizeLast=1;" parent="1" vertex="1">
          <mxGeometry x="320" y="440" width="160" height="200" as="geometry" />
        </mxCell>
        <mxCell id="mnixo42vS2QTnkZEOLGy-78" value="" style="shape=partialRectangle;collapsible=0;dropTarget=0;pointerEvents=0;fillColor=none;top=0;left=0;bottom=1;right=0;points=[[0,0.5],[1,0.5]];portConstraint=eastwest;" parent="mnixo42vS2QTnkZEOLGy-77" vertex="1">
          <mxGeometry y="30" width="160" height="30" as="geometry" />
        </mxCell>
        <mxCell id="mnixo42vS2QTnkZEOLGy-79" value="PK" style="shape=partialRectangle;connectable=0;fillColor=none;top=0;left=0;bottom=0;right=0;fontStyle=1;overflow=hidden;" parent="mnixo42vS2QTnkZEOLGy-78" vertex="1">
          <mxGeometry width="30" height="30" as="geometry" />
        </mxCell>
        <mxCell id="mnixo42vS2QTnkZEOLGy-80" value="í ¼í¶”Â " style="shape=partialRectangle;connectable=0;fillColor=none;top=0;left=0;bottom=0;right=0;align=left;spacingLeft=6;fontStyle=5;overflow=hidden;" parent="mnixo42vS2QTnkZEOLGy-78" vertex="1">
          <mxGeometry x="30" width="130" height="30" as="geometry" />
        </mxCell>
        <mxCell id="mnixo42vS2QTnkZEOLGy-81" value="" style="shape=partialRectangle;collapsible=0;dropTarget=0;pointerEvents=0;fillColor=none;top=0;left=0;bottom=0;right=0;points=[[0,0.5],[1,0.5]];portConstraint=eastwest;" parent="mnixo42vS2QTnkZEOLGy-77" vertex="1">
          <mxGeometry y="60" width="160" height="30" as="geometry" />
        </mxCell>
        <mxCell id="mnixo42vS2QTnkZEOLGy-82" value="" style="shape=partialRectangle;connectable=0;fillColor=none;top=0;left=0;bottom=0;right=0;editable=1;overflow=hidden;" parent="mnixo42vS2QTnkZEOLGy-81" vertex="1">
          <mxGeometry width="30" height="30" as="geometry" />
        </mxCell>
        <mxCell id="mnixo42vS2QTnkZEOLGy-83" value="Titulo" style="shape=partialRectangle;connectable=0;fillColor=none;top=0;left=0;bottom=0;right=0;align=left;spacingLeft=6;overflow=hidden;" parent="mnixo42vS2QTnkZEOLGy-81" vertex="1">
          <mxGeometry x="30" width="130" height="30" as="geometry" />
        </mxCell>
        <mxCell id="mnixo42vS2QTnkZEOLGy-84" value="" style="shape=partialRectangle;collapsible=0;dropTarget=0;pointerEvents=0;fillColor=none;top=0;left=0;bottom=0;right=0;points=[[0,0.5],[1,0.5]];portConstraint=eastwest;" parent="mnixo42vS2QTnkZEOLGy-77" vertex="1">
          <mxGeometry y="90" width="160" height="30" as="geometry" />
        </mxCell>
        <mxCell id="mnixo42vS2QTnkZEOLGy-85" value="" style="shape=partialRectangle;connectable=0;fillColor=none;top=0;left=0;bottom=0;right=0;editable=1;overflow=hidden;" parent="mnixo42vS2QTnkZEOLGy-84" vertex="1">
          <mxGeometry width="30" height="30" as="geometry" />
        </mxCell>
        <mxCell id="mnixo42vS2QTnkZEOLGy-86" value="DescripciÃ³n" style="shape=partialRectangle;connectable=0;fillColor=none;top=0;left=0;bottom=0;right=0;align=left;spacingLeft=6;overflow=hidden;" parent="mnixo42vS2QTnkZEOLGy-84" vertex="1">
          <mxGeometry x="30" width="130" height="30" as="geometry" />
        </mxCell>
        <mxCell id="mnixo42vS2QTnkZEOLGy-87" value="" style="shape=partialRectangle;collapsible=0;dropTarget=0;pointerEvents=0;fillColor=none;top=0;left=0;bottom=0;right=0;points=[[0,0.5],[1,0.5]];portConstraint=eastwest;" parent="mnixo42vS2QTnkZEOLGy-77" vertex="1">
          <mxGeometry y="120" width="160" height="30" as="geometry" />
        </mxCell>
        <mxCell id="mnixo42vS2QTnkZEOLGy-88" value="" style="shape=partialRectangle;connectable=0;fillColor=none;top=0;left=0;bottom=0;right=0;editable=1;overflow=hidden;" parent="mnixo42vS2QTnkZEOLGy-87" vertex="1">
          <mxGeometry width="30" height="30" as="geometry" />
        </mxCell>
        <mxCell id="mnixo42vS2QTnkZEOLGy-89" value="Autor" style="shape=partialRectangle;connectable=0;fillColor=none;top=0;left=0;bottom=0;right=0;align=left;spacingLeft=6;overflow=hidden;" parent="mnixo42vS2QTnkZEOLGy-87" vertex="1">
          <mxGeometry x="30" width="130" height="30" as="geometry" />
        </mxCell>
        <mxCell id="mnixo42vS2QTnkZEOLGy-90" value="" style="shape=partialRectangle;collapsible=0;dropTarget=0;pointerEvents=0;fillColor=none;top=0;left=0;bottom=0;right=0;points=[[0,0.5],[1,0.5]];portConstraint=eastwest;" parent="mnixo42vS2QTnkZEOLGy-77" vertex="1">
          <mxGeometry y="150" width="160" height="30" as="geometry" />
        </mxCell>
        <mxCell id="mnixo42vS2QTnkZEOLGy-91" value="" style="shape=partialRectangle;connectable=0;fillColor=none;top=0;left=0;bottom=0;right=0;editable=1;overflow=hidden;" parent="mnixo42vS2QTnkZEOLGy-90" vertex="1">
          <mxGeometry width="30" height="30" as="geometry" />
        </mxCell>
        <mxCell id="mnixo42vS2QTnkZEOLGy-92" value="Editorial" style="shape=partialRectangle;connectable=0;fillColor=none;top=0;left=0;bottom=0;right=0;align=left;spacingLeft=6;overflow=hidden;" parent="mnixo42vS2QTnkZEOLGy-90" vertex="1">
          <mxGeometry x="30" width="130" height="30" as="geometry" />
        </mxCell>
        <mxCell id="mnixo42vS2QTnkZEOLGy-102" style="edgeStyle=orthogonalEdgeStyle;rounded=0;orthogonalLoop=1;jettySize=auto;html=1;exitX=0;exitY=0.5;exitDx=0;exitDy=0;" parent="1" source="mnixo42vS2QTnkZEOLGy-78" target="mnixo42vS2QTnkZEOLGy-71" edge="1">
          <mxGeometry relative="1" as="geometry" />
        </mxCell>
        <mxCell id="mnixo42vS2QTnkZEOLGy-103" style="edgeStyle=orthogonalEdgeStyle;rounded=0;orthogonalLoop=1;jettySize=auto;html=1;exitX=1;exitY=0.5;exitDx=0;exitDy=0;" parent="1" source="mnixo42vS2QTnkZEOLGy-2" target="mnixo42vS2QTnkZEOLGy-93" edge="1">
          <mxGeometry relative="1" as="geometry" />
        </mxCell>
        <mxCell id="mnixo42vS2QTnkZEOLGy-104" style="edgeStyle=orthogonalEdgeStyle;rounded=0;orthogonalLoop=1;jettySize=auto;html=1;exitX=0;exitY=0.5;exitDx=0;exitDy=0;" parent="1" source="mnixo42vS2QTnkZEOLGy-34" target="mnixo42vS2QTnkZEOLGy-27" edge="1">
          <mxGeometry relative="1" as="geometry" />
        </mxCell>
        <mxCell id="mnixo42vS2QTnkZEOLGy-105" style="edgeStyle=orthogonalEdgeStyle;rounded=0;orthogonalLoop=1;jettySize=auto;html=1;exitX=0;exitY=0.5;exitDx=0;exitDy=0;" parent="1" source="mnixo42vS2QTnkZEOLGy-47" target="mnixo42vS2QTnkZEOLGy-30" edge="1">
          <mxGeometry relative="1" as="geometry" />
        </mxCell>
        <mxCell id="mnixo42vS2QTnkZEOLGy-107" style="edgeStyle=orthogonalEdgeStyle;rounded=0;orthogonalLoop=1;jettySize=auto;html=1;exitX=0;exitY=0.5;exitDx=0;exitDy=0;entryX=1;entryY=0.5;entryDx=0;entryDy=0;" parent="1" source="mnixo42vS2QTnkZEOLGy-18" target="mnixo42vS2QTnkZEOLGy-68" edge="1">
          <mxGeometry relative="1" as="geometry" />
        </mxCell>
        <mxCell id="E_GpECWjMHCtS1HpSzuQ-1" value="&lt;b&gt;&lt;font style=&quot;font-size: 14px&quot;&gt;ResoluciÃ³n #2&lt;/font&gt;&lt;/b&gt;" style="text;html=1;strokeColor=none;fillColor=none;align=center;verticalAlign=middle;whiteSpace=wrap;rounded=0;" vertex="1" parent="1">
          <mxGeometry x="40" y="40" width="120" height="20" as="geometry" />
        </mxCell>
      </root>
    </mxGraphModel>
  </diagram>
</mxfile>
